<svg width="80" height="40" viewBox="0 0 80 40" fill="none" xmlns="http://www.w3.org/2000/svg">
<rect x="52" y="4.5" width="7" height="48" rx="3.5" transform="rotate(90 52 4.5)" fill="white"/>
<rect x="4" y="15.5" width="20" height="20" rx="6" fill="white"/>
<path d="M26.6534 30.0682C26.4432 30.0682 26.2628 29.9929 26.1122 29.8423C25.9616 29.6918 25.8864 29.5114 25.8864 29.3011C25.8864 29.0909 25.9616 28.9105 26.1122 28.7599C26.2628 28.6094 26.4432 28.5341 26.6534 28.5341C26.8636 28.5341 27.044 28.6094 27.1946 28.7599C27.3452 28.9105 27.4205 29.0909 27.4205 29.3011C27.4205 29.4403 27.3849 29.5682 27.3139 29.6847C27.2457 29.8011 27.1534 29.8949 27.0369 29.9659C26.9233 30.0341 26.7955 30.0682 26.6534 30.0682ZM26.6534 25.2102C26.4432 25.2102 26.2628 25.1349 26.1122 24.9844C25.9616 24.8338 25.8864 24.6534 25.8864 24.4432C25.8864 24.233 25.9616 24.0526 26.1122 23.902C26.2628 23.7514 26.4432 23.6761 26.6534 23.6761C26.8636 23.6761 27.044 23.7514 27.1946 23.902C27.3452 24.0526 27.4205 24.233 27.4205 24.4432C27.4205 24.5824 27.3849 24.7102 27.3139 24.8267C27.2457 24.9432 27.1534 25.0369 27.0369 25.108C26.9233 25.1761 26.7955 25.2102 26.6534 25.2102Z" fill="white"/>
<rect x="30" y="15.5" width="20" height="20" rx="6" fill="white"/>
<path d="M52.6534 30.0682C52.4432 30.0682 52.2628 29.9929 52.1122 29.8423C51.9616 29.6918 51.8864 29.5114 51.8864 29.3011C51.8864 29.0909 51.9616 28.9105 52.1122 28.7599C52.2628 28.6094 52.4432 28.5341 52.6534 28.5341C52.8636 28.5341 53.044 28.6094 53.1946 28.7599C53.3452 28.9105 53.4205 29.0909 53.4205 29.3011C53.4205 29.4403 53.3849 29.5682 53.3139 29.6847C53.2457 29.8011 53.1534 29.8949 53.0369 29.9659C52.9233 30.0341 52.7955 30.0682 52.6534 30.0682ZM52.6534 25.2102C52.4432 25.2102 52.2628 25.1349 52.1122 24.9844C51.9616 24.8338 51.8864 24.6534 51.8864 24.4432C51.8864 24.233 51.9616 24.0526 52.1122 23.902C52.2628 23.7514 52.4432 23.6761 52.6534 23.6761C52.8636 23.6761 53.044 23.7514 53.1946 23.902C53.3452 24.0526 53.4205 24.233 53.4205 24.4432C53.4205 24.5824 53.3849 24.7102 53.3139 24.8267C53.2457 24.9432 53.1534 25.0369 53.0369 25.108C52.9233 25.1761 52.7955 25.2102 52.6534 25.2102Z" fill="white"/>
<rect x="56" y="15.5" width="20" height="20" rx="6" fill="white"/>
</svg>
