<svg width="80" height="36" viewBox="0 0 80 36" fill="none" xmlns="http://www.w3.org/2000/svg">
<rect x="4" y="8" width="20" height="20" rx="6" fill="white"/>
<path d="M26.6534 22.5682C26.4432 22.5682 26.2628 22.4929 26.1122 22.3423C25.9616 22.1918 25.8864 22.0114 25.8864 21.8011C25.8864 21.5909 25.9616 21.4105 26.1122 21.2599C26.2628 21.1094 26.4432 21.0341 26.6534 21.0341C26.8636 21.0341 27.044 21.1094 27.1946 21.2599C27.3452 21.4105 27.4205 21.5909 27.4205 21.8011C27.4205 21.9403 27.3849 22.0682 27.3139 22.1847C27.2457 22.3011 27.1534 22.3949 27.0369 22.4659C26.9233 22.5341 26.7955 22.5682 26.6534 22.5682ZM26.6534 17.7102C26.4432 17.7102 26.2628 17.6349 26.1122 17.4844C25.9616 17.3338 25.8864 17.1534 25.8864 16.9432C25.8864 16.733 25.9616 16.5526 26.1122 16.402C26.2628 16.2514 26.4432 16.1761 26.6534 16.1761C26.8636 16.1761 27.044 16.2514 27.1946 16.402C27.3452 16.5526 27.4205 16.733 27.4205 16.9432C27.4205 17.0824 27.3849 17.2102 27.3139 17.3267C27.2457 17.4432 27.1534 17.5369 27.0369 17.608C26.9233 17.6761 26.7955 17.7102 26.6534 17.7102Z" fill="white"/>
<rect x="30" y="8" width="20" height="20" rx="6" fill="white"/>
<path d="M52.6534 22.5682C52.4432 22.5682 52.2628 22.4929 52.1122 22.3423C51.9616 22.1918 51.8864 22.0114 51.8864 21.8011C51.8864 21.5909 51.9616 21.4105 52.1122 21.2599C52.2628 21.1094 52.4432 21.0341 52.6534 21.0341C52.8636 21.0341 53.044 21.1094 53.1946 21.2599C53.3452 21.4105 53.4205 21.5909 53.4205 21.8011C53.4205 21.9403 53.3849 22.0682 53.3139 22.1847C53.2457 22.3011 53.1534 22.3949 53.0369 22.4659C52.9233 22.5341 52.7955 22.5682 52.6534 22.5682ZM52.6534 17.7102C52.4432 17.7102 52.2628 17.6349 52.1122 17.4844C51.9616 17.3338 51.8864 17.1534 51.8864 16.9432C51.8864 16.733 51.9616 16.5526 52.1122 16.402C52.2628 16.2514 52.4432 16.1761 52.6534 16.1761C52.8636 16.1761 53.044 16.2514 53.1946 16.402C53.3452 16.5526 53.4205 16.733 53.4205 16.9432C53.4205 17.0824 53.3849 17.2102 53.3139 17.3267C53.2457 17.4432 53.1534 17.5369 53.0369 17.608C52.9233 17.6761 52.7955 17.7102 52.6534 17.7102Z" fill="white"/>
<rect x="56" y="8" width="20" height="20" rx="6" fill="white"/>
</svg>
