<svg width="80" height="40" viewBox="0 0 80 40" fill="none" xmlns="http://www.w3.org/2000/svg">
<rect x="6" y="5" width="12" height="12" rx="3" fill="white"/>
<path d="M14.9167 7.5H9.08333C8.92862 7.5 8.78025 7.56146 8.67085 7.67085C8.56146 7.78025 8.5 7.92862 8.5 8.08333V13.9167C8.5 14.0714 8.56146 14.2197 8.67085 14.3291C8.78025 14.4385 8.92862 14.5 9.08333 14.5H14.9167C15.0714 14.5 15.2197 14.4385 15.3291 14.3291C15.4385 14.2197 15.5 14.0714 15.5 13.9167V8.08333C15.5 7.92862 15.4385 7.78025 15.3291 7.67085C15.2197 7.56146 15.0714 7.5 14.9167 7.5ZM9.08333 8.08333H14.9167V10.9045L14.0165 10.004C13.9071 9.89464 13.7588 9.83324 13.6042 9.83324C13.4495 9.83324 13.3012 9.89464 13.1918 10.004L9.27911 13.9167H9.08333V8.08333ZM14.9167 13.9167H10.1042L13.6042 10.4167L14.9167 11.7292V13.9167ZM10.8333 10.7083C11.0064 10.7083 11.1756 10.657 11.3195 10.5609C11.4634 10.4647 11.5755 10.3281 11.6417 10.1682C11.708 10.0083 11.7253 9.83236 11.6915 9.66263C11.6578 9.4929 11.5744 9.33699 11.4521 9.21461C11.3297 9.09224 11.1738 9.00891 11.004 8.97515C10.8343 8.94138 10.6584 8.95871 10.4985 9.02494C10.3386 9.09117 10.2019 9.20332 10.1058 9.34721C10.0097 9.4911 9.95833 9.66027 9.95833 9.83333C9.95833 10.0654 10.0505 10.288 10.2146 10.4521C10.3787 10.6161 10.6013 10.7083 10.8333 10.7083ZM10.8333 9.54167C10.891 9.54167 10.9474 9.55877 10.9954 9.59082C11.0433 9.62287 11.0807 9.66842 11.1028 9.72172C11.1249 9.77501 11.1306 9.83366 11.1194 9.89023C11.1081 9.94681 11.0804 9.99878 11.0396 10.0396C10.9988 10.0804 10.9468 10.1081 10.8902 10.1194C10.8337 10.1306 10.775 10.1249 10.7217 10.1028C10.6684 10.0807 10.6229 10.0433 10.5908 9.99537C10.5588 9.94741 10.5417 9.89102 10.5417 9.83333C10.5417 9.75598 10.5724 9.68179 10.6271 9.62709C10.6818 9.5724 10.756 9.54167 10.8333 9.54167Z" fill="#3B3B3B"/>
<rect x="58" y="8.5" width="5" height="34" rx="2.5" transform="rotate(90 58 8.5)" fill="white"/>
<rect x="64" y="4" width="10" height="14" rx="4" fill="white"/>
<rect x="6" y="23" width="12" height="12" rx="3" fill="white"/>
<path d="M14.9167 25.5H9.08333C8.92862 25.5 8.78025 25.5615 8.67085 25.6709C8.56146 25.7803 8.5 25.9286 8.5 26.0833V31.9167C8.5 32.0714 8.56146 32.2197 8.67085 32.3291C8.78025 32.4385 8.92862 32.5 9.08333 32.5H14.9167C15.0714 32.5 15.2197 32.4385 15.3291 32.3291C15.4385 32.2197 15.5 32.0714 15.5 31.9167V26.0833C15.5 25.9286 15.4385 25.7803 15.3291 25.6709C15.2197 25.5615 15.0714 25.5 14.9167 25.5ZM9.08333 26.0833H14.9167V28.9045L14.0165 28.004C13.9071 27.8946 13.7588 27.8332 13.6042 27.8332C13.4495 27.8332 13.3012 27.8946 13.1918 28.004L9.27911 31.9167H9.08333V26.0833ZM14.9167 31.9167H10.1042L13.6042 28.4167L14.9167 29.7292V31.9167ZM10.8333 28.7083C11.0064 28.7083 11.1756 28.657 11.3195 28.5609C11.4634 28.4647 11.5755 28.3281 11.6417 28.1682C11.708 28.0083 11.7253 27.8324 11.6915 27.6626C11.6578 27.4929 11.5744 27.337 11.4521 27.2146C11.3297 27.0922 11.1738 27.0089 11.004 26.9751C10.8343 26.9414 10.6584 26.9587 10.4985 27.0249C10.3386 27.0912 10.2019 27.2033 10.1058 27.3472C10.0097 27.4911 9.95833 27.6603 9.95833 27.8333C9.95833 28.0654 10.0505 28.288 10.2146 28.4521C10.3787 28.6161 10.6013 28.7083 10.8333 28.7083ZM10.8333 27.5417C10.891 27.5417 10.9474 27.5588 10.9954 27.5908C11.0433 27.6229 11.0807 27.6684 11.1028 27.7217C11.1249 27.775 11.1306 27.8337 11.1194 27.8902C11.1081 27.9468 11.0804 27.9988 11.0396 28.0396C10.9988 28.0804 10.9468 28.1081 10.8902 28.1194C10.8337 28.1306 10.775 28.1249 10.7217 28.1028C10.6684 28.0807 10.6229 28.0433 10.5908 27.9954C10.5588 27.9474 10.5417 27.891 10.5417 27.8333C10.5417 27.756 10.5724 27.6818 10.6271 27.6271C10.6818 27.5724 10.756 27.5417 10.8333 27.5417Z" fill="#3B3B3B"/>
<rect x="58" y="26" width="6" height="34" rx="3" transform="rotate(90 58 26)" fill="white"/>
<rect x="64" y="22" width="10" height="14" rx="4" fill="white"/>
</svg>
