<svg width="80" height="40" viewBox="0 0 80 40" fill="none" xmlns="http://www.w3.org/2000/svg">
<rect x="11" y="6" width="12" height="12" rx="3" fill="white"/>
<path d="M19.9167 8.5H14.0833C13.9286 8.5 13.7803 8.56146 13.6709 8.67085C13.5615 8.78025 13.5 8.92862 13.5 9.08333V14.9167C13.5 15.0714 13.5615 15.2197 13.6709 15.3291C13.7803 15.4385 13.9286 15.5 14.0833 15.5H19.9167C20.0714 15.5 20.2197 15.4385 20.3291 15.3291C20.4385 15.2197 20.5 15.0714 20.5 14.9167V9.08333C20.5 8.92862 20.4385 8.78025 20.3291 8.67085C20.2197 8.56146 20.0714 8.5 19.9167 8.5ZM14.0833 9.08333H19.9167V11.9045L19.0165 11.004C18.9071 10.8946 18.7588 10.8332 18.6042 10.8332C18.4495 10.8332 18.3012 10.8946 18.1918 11.004L14.2791 14.9167H14.0833V9.08333ZM19.9167 14.9167H15.1042L18.6042 11.4167L19.9167 12.7292V14.9167ZM15.8333 11.7083C16.0064 11.7083 16.1756 11.657 16.3195 11.5609C16.4634 11.4647 16.5755 11.3281 16.6417 11.1682C16.708 11.0083 16.7253 10.8324 16.6915 10.6626C16.6578 10.4929 16.5744 10.337 16.4521 10.2146C16.3297 10.0922 16.1738 10.0089 16.004 9.97515C15.8343 9.94138 15.6584 9.95871 15.4985 10.0249C15.3386 10.0912 15.2019 10.2033 15.1058 10.3472C15.0097 10.4911 14.9583 10.6603 14.9583 10.8333C14.9583 11.0654 15.0505 11.288 15.2146 11.4521C15.3787 11.6161 15.6013 11.7083 15.8333 11.7083ZM15.8333 10.5417C15.891 10.5417 15.9474 10.5588 15.9954 10.5908C16.0433 10.6229 16.0807 10.6684 16.1028 10.7217C16.1249 10.775 16.1306 10.8337 16.1194 10.8902C16.1081 10.9468 16.0804 10.9988 16.0396 11.0396C15.9988 11.0804 15.9468 11.1081 15.8902 11.1194C15.8337 11.1306 15.775 11.1249 15.7217 11.1028C15.6684 11.0807 15.6229 11.0433 15.5908 10.9954C15.5588 10.9474 15.5417 10.891 15.5417 10.8333C15.5417 10.756 15.5724 10.6818 15.6271 10.6271C15.6818 10.5724 15.756 10.5417 15.8333 10.5417Z" fill="#3B3B3B"/>
<rect x="69" y="9.5" width="5" height="40" rx="2.5" transform="rotate(90 69 9.5)" fill="white"/>
<rect x="11" y="22" width="12" height="12" rx="3" fill="white"/>
<path d="M19.9167 24.5H14.0833C13.9286 24.5 13.7803 24.5615 13.6709 24.6709C13.5615 24.7803 13.5 24.9286 13.5 25.0833V30.9167C13.5 31.0714 13.5615 31.2197 13.6709 31.3291C13.7803 31.4385 13.9286 31.5 14.0833 31.5H19.9167C20.0714 31.5 20.2197 31.4385 20.3291 31.3291C20.4385 31.2197 20.5 31.0714 20.5 30.9167V25.0833C20.5 24.9286 20.4385 24.7803 20.3291 24.6709C20.2197 24.5615 20.0714 24.5 19.9167 24.5ZM14.0833 25.0833H19.9167V27.9045L19.0165 27.004C18.9071 26.8946 18.7588 26.8332 18.6042 26.8332C18.4495 26.8332 18.3012 26.8946 18.1918 27.004L14.2791 30.9167H14.0833V25.0833ZM19.9167 30.9167H15.1042L18.6042 27.4167L19.9167 28.7292V30.9167ZM15.8333 27.7083C16.0064 27.7083 16.1756 27.657 16.3195 27.5609C16.4634 27.4647 16.5755 27.3281 16.6417 27.1682C16.708 27.0083 16.7253 26.8324 16.6915 26.6626C16.6578 26.4929 16.5744 26.337 16.4521 26.2146C16.3297 26.0922 16.1738 26.0089 16.004 25.9751C15.8343 25.9414 15.6584 25.9587 15.4985 26.0249C15.3386 26.0912 15.2019 26.2033 15.1058 26.3472C15.0097 26.4911 14.9583 26.6603 14.9583 26.8333C14.9583 27.0654 15.0505 27.288 15.2146 27.4521C15.3787 27.6161 15.6013 27.7083 15.8333 27.7083ZM15.8333 26.5417C15.891 26.5417 15.9474 26.5588 15.9954 26.5908C16.0433 26.6229 16.0807 26.6684 16.1028 26.7217C16.1249 26.775 16.1306 26.8337 16.1194 26.8902C16.1081 26.9468 16.0804 26.9988 16.0396 27.0396C15.9988 27.0804 15.9468 27.1081 15.8902 27.1194C15.8337 27.1306 15.775 27.1249 15.7217 27.1028C15.6684 27.0807 15.6229 27.0433 15.5908 26.9954C15.5588 26.9474 15.5417 26.891 15.5417 26.8333C15.5417 26.756 15.5724 26.6818 15.6271 26.6271C15.6818 26.5724 15.756 26.5417 15.8333 26.5417Z" fill="#3B3B3B"/>
<rect x="69" y="25.5" width="5" height="40" rx="2.5" transform="rotate(90 69 25.5)" fill="white"/>
</svg>
