<svg width="80" height="36" viewBox="0 0 80 36" fill="none" xmlns="http://www.w3.org/2000/svg">
<rect x="7" y="8" width="20" height="20" rx="6" fill="white"/>
<path d="M22.4167 12H11.5833C11.296 12 11.0205 12.1141 10.8173 12.3173C10.6141 12.5205 10.5 12.796 10.5 13.0833V23.9167C10.5 24.204 10.6141 24.4795 10.8173 24.6827C11.0205 24.8859 11.296 25 11.5833 25H22.4167C22.704 25 22.9795 24.8859 23.1827 24.6827C23.3859 24.4795 23.5 24.204 23.5 23.9167V13.0833C23.5 12.796 23.3859 12.5205 23.1827 12.3173C22.9795 12.1141 22.704 12 22.4167 12ZM11.5833 13.0833H22.4167V18.3226L20.7449 16.6502C20.5418 16.4472 20.2664 16.3332 19.9792 16.3332C19.692 16.3332 19.4165 16.4472 19.2134 16.6502L11.9469 23.9167H11.5833V13.0833ZM22.4167 23.9167H13.4792L19.9792 17.4167L22.4167 19.8542V23.9167ZM14.8333 17.9583C15.1547 17.9583 15.4689 17.863 15.7361 17.6845C16.0034 17.5059 16.2116 17.2521 16.3346 16.9552C16.4576 16.6583 16.4898 16.3315 16.4271 16.0163C16.3644 15.7011 16.2096 15.4115 15.9824 15.1843C15.7551 14.957 15.4656 14.8023 15.1504 14.7396C14.8351 14.6769 14.5084 14.709 14.2115 14.832C13.9145 14.955 13.6608 15.1633 13.4822 15.4305C13.3036 15.6978 13.2083 16.0119 13.2083 16.3333C13.2083 16.7643 13.3795 17.1776 13.6843 17.4824C13.989 17.7871 14.4024 17.9583 14.8333 17.9583ZM14.8333 15.7917C14.9405 15.7917 15.0452 15.8234 15.1343 15.883C15.2233 15.9425 15.2928 16.0271 15.3338 16.126C15.3748 16.225 15.3855 16.3339 15.3646 16.439C15.3437 16.5441 15.2921 16.6406 15.2163 16.7163C15.1406 16.7921 15.0441 16.8437 14.939 16.8646C14.8339 16.8855 14.725 16.8748 14.626 16.8338C14.5271 16.7928 14.4425 16.7233 14.383 16.6343C14.3234 16.5452 14.2917 16.4405 14.2917 16.3333C14.2917 16.1897 14.3487 16.0519 14.4503 15.9503C14.5519 15.8487 14.6897 15.7917 14.8333 15.7917Z" fill="#3B3B3B"/>
<rect x="73" y="13" width="10" height="40" rx="5" transform="rotate(90 73 13)" fill="white"/>
</svg>
