<svg width="80" height="36" viewBox="0 0 80 36" fill="none" xmlns="http://www.w3.org/2000/svg">
<rect x="3.5" y="8" width="20" height="20" rx="6" fill="white"/>
<path d="M18.9167 12H8.08333C7.79602 12 7.52047 12.1141 7.3173 12.3173C7.11414 12.5205 7 12.796 7 13.0833V23.9167C7 24.204 7.11414 24.4795 7.3173 24.6827C7.52047 24.8859 7.79602 25 8.08333 25H18.9167C19.204 25 19.4795 24.8859 19.6827 24.6827C19.8859 24.4795 20 24.204 20 23.9167V13.0833C20 12.796 19.8859 12.5205 19.6827 12.3173C19.4795 12.1141 19.204 12 18.9167 12ZM8.08333 13.0833H18.9167V18.3226L17.2449 16.6502C17.0418 16.4472 16.7664 16.3332 16.4792 16.3332C16.192 16.3332 15.9165 16.4472 15.7134 16.6502L8.44693 23.9167H8.08333V13.0833ZM18.9167 23.9167H9.97917L16.4792 17.4167L18.9167 19.8542V23.9167ZM11.3333 17.9583C11.6547 17.9583 11.9689 17.863 12.2361 17.6845C12.5034 17.5059 12.7116 17.2521 12.8346 16.9552C12.9576 16.6583 12.9898 16.3315 12.9271 16.0163C12.8644 15.7011 12.7096 15.4115 12.4824 15.1843C12.2551 14.957 11.9656 14.8023 11.6504 14.7396C11.3351 14.6769 11.0084 14.709 10.7115 14.832C10.4145 14.955 10.1608 15.1633 9.9822 15.4305C9.80364 15.6978 9.70833 16.0119 9.70833 16.3333C9.70833 16.7643 9.87954 17.1776 10.1843 17.4824C10.489 17.7871 10.9024 17.9583 11.3333 17.9583ZM11.3333 15.7917C11.4405 15.7917 11.5452 15.8234 11.6343 15.883C11.7233 15.9425 11.7928 16.0271 11.8338 16.126C11.8748 16.225 11.8855 16.3339 11.8646 16.439C11.8437 16.5441 11.7921 16.6406 11.7163 16.7163C11.6406 16.7921 11.5441 16.8437 11.439 16.8646C11.3339 16.8855 11.225 16.8748 11.126 16.8338C11.0271 16.7928 10.9425 16.7233 10.883 16.6343C10.8234 16.5452 10.7917 16.4405 10.7917 16.3333C10.7917 16.1897 10.8487 16.0519 10.9503 15.9503C11.0519 15.8487 11.1897 15.7917 11.3333 15.7917Z" fill="#3B3B3B"/>
<rect x="60.5" y="13" width="10" height="33" rx="5" transform="rotate(90 60.5 13)" fill="white"/>
<rect x="64.5" y="8" width="12" height="20" rx="4" fill="white"/>
</svg>
