<svg width="436" height="116" viewBox="0 0 436 116" fill="none" xmlns="http://www.w3.org/2000/svg">
<path fill-rule="evenodd" clip-rule="evenodd" d="M106 106H10V10H106V106ZM19 19V97H97V19H19Z" fill="#19181D"/>
<path d="M25 41H59V50H25V41Z" fill="#19181D"/>
<path d="M166.8 98.536C161.36 98.536 156.752 97.16 152.976 94.408C149.264 91.656 146.416 87.624 144.432 82.312C142.448 77 141.456 70.568 141.456 63.016C141.456 55.336 142.448 48.84 144.432 43.528C146.416 38.216 149.264 34.184 152.976 31.432C156.752 28.68 161.36 27.304 166.8 27.304C172.24 27.304 176.848 28.68 180.624 31.432C184.4 34.184 187.248 38.216 189.168 43.528C191.152 48.84 192.144 55.336 192.144 63.016C192.144 70.568 191.152 77 189.168 82.312C187.248 87.624 184.4 91.656 180.624 94.408C176.848 97.16 172.24 98.536 166.8 98.536ZM166.8 89.128C170 89.128 172.688 88.168 174.864 86.248C177.104 84.328 178.8 81.416 179.952 77.512C181.104 73.608 181.68 68.776 181.68 63.016C181.68 57.256 181.104 52.424 179.952 48.52C178.8 44.552 177.104 41.608 174.864 39.688C172.688 37.704 170 36.712 166.8 36.712C163.6 36.712 160.88 37.704 158.64 39.688C156.464 41.608 154.8 44.552 153.648 48.52C152.496 52.424 151.92 57.256 151.92 63.016C151.92 68.776 152.496 73.608 153.648 77.512C154.8 81.416 156.464 84.328 158.64 86.248C160.88 88.168 163.6 89.128 166.8 89.128ZM218.314 97L199.882 45.928H210.346L224.362 86.728L238.378 45.928H248.842L230.41 97H218.314ZM274.149 97V45.928H281.829L282.693 58.984L281.829 58.888C282.469 54.472 283.845 51.208 285.957 49.096C288.069 46.984 290.981 45.928 294.693 45.928H305.541V54.376H295.077C292.645 54.376 290.597 54.856 288.933 55.816C287.269 56.712 285.989 58.088 285.093 59.944C284.261 61.736 283.845 63.976 283.845 66.664V97H274.149ZM261.189 97V88.84H299.781V97H261.189ZM261.189 54.088V45.928H279.621V54.088H261.189ZM336.031 97V43.336C336.031 41.352 335.455 39.816 334.303 38.728C333.215 37.576 331.679 37 329.695 37H317.983V28.84H330.751C335.679 28.84 339.391 30.12 341.887 32.68C344.447 35.176 345.727 38.888 345.727 43.816V97H336.031ZM316.063 97V88.84H362.911V97H316.063ZM380.73 111.4V103.24H386.97C388.762 103.24 390.074 102.952 390.906 102.376C391.802 101.864 392.474 101 392.922 99.784L394.65 95.272H391.386L372.762 45.928H383.226L397.722 86.152L411.258 45.928H421.626L401.274 102.76C400.25 105.832 398.65 108.04 396.474 109.384C394.362 110.728 391.514 111.4 387.93 111.4H380.73Z" fill="#19181D"/>
</svg>
